# xmcd CD database file
# Copyright (C) 1993-1996 Ti Kan
#
# Track frame offsets:
#  150
#  15350
#  36668
#  52538
#  68734
#  82918
#  98884
#  117338
#  132061
#  155219
#  181658
#
# Disc length: 2566 seconds
#
# Revision: 1
# Processed by: cddbd v1.5.1PL0 Copyright (c) Steve Scherf et al.
# Submitted via: Advanced CD Ripper Pro 2.0
#
DISCID=800a040b
DTITLE=Paal Flaata - In Demand
DYEAR=2002
DGENRE=Country
TTITLE0=Brother, Where Are You?
TTITLE1=Wish I Was
TTITLE2=Second Lover's Song
TTITLE3=Have a Heart
TTITLE4=No One Has to Know
TTITLE5=Just to Hear Your Voice
TTITLE6=Will You be my Rose
TTITLE7=Peace on You
TTITLE8=Never is a Moment
TTITLE9=Willie And Laura Mae Jones
TTITLE10=Stand by Me
EXTD=
EXTT0=
EXTT1=
EXTT2=
EXTT3=
EXTT4=
EXTT5=
EXTT6=
EXTT7=
EXTT8=
EXTT9=
EXTT10=
PLAYORDER=
